<?xml version="1.0" encoding="utf-8"?>
<!-- Generator: Adobe Illustrator 15.0.2, SVG Export Plug-In . SVG Version: 6.00 Build 0)  -->
<!DOCTYPE svg PUBLIC "-//W3C//DTD SVG 1.1//EN" "http://www.w3.org/Graphics/SVG/1.1/DTD/svg11.dtd">
<svg version="1.1" xmlns="http://www.w3.org/2000/svg" xmlns:xlink="http://www.w3.org/1999/xlink" x="0px" y="0px"
	 width="18.61px" height="14.645px" viewBox="0 0 18.61 14.645" enable-background="new 0 0 18.61 14.645" xml:space="preserve">
<g>
	<path d="M9.495,0H9.123C4.918,0,1.478,3.44,1.478,7.645v1.68v2.779v1.377c0,0.643,0.521,1.164,1.164,1.164h1.655
		c0.643,0,1.164-0.521,1.164-1.164V9.325c0-0.644-0.521-1.164-1.164-1.164H2.752V7.645c0-3.513,2.858-6.371,6.371-6.371h0.372
		c3.513,0,6.371,2.858,6.371,6.371v0.502h-1.553c-0.643,0-1.164,0.521-1.164,1.164v4.156c0,0.643,0.521,1.164,1.164,1.164h1.655
		c0.643,0,1.163-0.521,1.163-1.164v-1.041c0.005-0.107,0.009-0.214,0.009-0.322V7.645C17.141,3.44,13.7,0,9.495,0z"/>
	<polygon points="0,11.403 0,12.454 0.969,12.979 0.969,11.403 0.969,9.827 0,10.352 	"/>
	<polygon points="17.642,9.813 17.642,11.389 17.642,12.965 18.61,12.44 18.61,11.389 18.61,10.338 	"/>
</g>
</svg>
