<?xml version="1.0" encoding="utf-8"?>
<!-- Generator: Adobe Illustrator 15.0.2, SVG Export Plug-In . SVG Version: 6.00 Build 0)  -->
<!DOCTYPE svg PUBLIC "-//W3C//DTD SVG 1.1//EN" "http://www.w3.org/Graphics/SVG/1.1/DTD/svg11.dtd">
<svg version="1.1" xmlns="http://www.w3.org/2000/svg" xmlns:xlink="http://www.w3.org/1999/xlink" x="0px" y="0px"
	 width="13.652px" height="14.62px" viewBox="0 0 13.652 14.62" enable-background="new 0 0 13.652 14.62" xml:space="preserve">
<path d="M11.178,9.671c-0.6,0-1.15,0.213-1.578,0.568L4.938,7.548C4.944,7.47,4.949,7.39,4.949,7.31S4.944,7.15,4.938,7.072
	L9.6,4.381c0.428,0.355,0.979,0.569,1.578,0.569c1.367,0,2.475-1.108,2.475-2.475C13.652,1.108,12.545,0,11.178,0
	C9.812,0,8.703,1.108,8.703,2.475c0,0.179,0.02,0.353,0.056,0.521l-4.502,2.6c-0.45-0.468-1.082-0.76-1.782-0.76
	C1.107,4.835,0,5.943,0,7.31s1.107,2.475,2.475,2.475c0.7,0,1.332-0.292,1.782-0.761l4.502,2.6
	c-0.036,0.168-0.056,0.342-0.056,0.521c0,1.367,1.108,2.475,2.475,2.475c1.367,0,2.475-1.107,2.475-2.475S12.545,9.671,11.178,9.671
	z"/>
</svg>
