<?xml version="1.0" encoding="utf-8"?>
<!-- Generator: Adobe Illustrator 15.0.2, SVG Export Plug-In . SVG Version: 6.00 Build 0)  -->
<!DOCTYPE svg PUBLIC "-//W3C//DTD SVG 1.1//EN" "http://www.w3.org/Graphics/SVG/1.1/DTD/svg11.dtd">
<svg version="1.1" xmlns="http://www.w3.org/2000/svg" xmlns:xlink="http://www.w3.org/1999/xlink" x="0px" y="0px"
	 width="13.2px" height="17.991px" viewBox="0 0 13.2 17.991" enable-background="new 0 0 13.2 17.991" xml:space="preserve">
<path d="M1.941,2.025C3.234,0.675,4.787,0,6.6,0s3.366,0.675,4.66,2.025C12.553,3.375,13.2,5,13.2,6.9
	c0,0.963-0.194,1.985-0.581,3.066c-0.388,1.081-0.856,2.047-1.406,2.897c-0.551,0.85-1.101,1.635-1.65,2.354
	c-0.551,0.719-1.02,1.271-1.406,1.658l-0.581,0.582c-0.413,0.362-0.753,0.541-1.022,0.534c-0.269-0.007-0.597-0.185-0.984-0.534
	c-0.149-0.15-0.35-0.356-0.6-0.619c-0.25-0.262-0.697-0.793-1.34-1.594c-0.645-0.8-1.21-1.6-1.697-2.4
	C1.443,12.044,1,11.093,0.6,9.994S0,7.863,0,6.9C0,5,0.646,3.375,1.941,2.025z M4.396,8.803C5.003,9.41,5.738,9.712,6.6,9.712
	c0.863,0,1.601-0.303,2.213-0.909S9.731,7.462,9.731,6.6c0-0.863-0.307-1.6-0.919-2.212S7.463,3.469,6.6,3.469
	c-0.861,0-1.597,0.307-2.203,0.919C3.791,5,3.488,5.737,3.488,6.6C3.488,7.462,3.791,8.197,4.396,8.803z"/>
</svg>
