<?xml version="1.0" encoding="utf-8"?>
<!-- Generator: Adobe Illustrator 15.0.2, SVG Export Plug-In . SVG Version: 6.00 Build 0)  -->
<!DOCTYPE svg PUBLIC "-//W3C//DTD SVG 1.1//EN" "http://www.w3.org/Graphics/SVG/1.1/DTD/svg11.dtd">
<svg version="1.1" xmlns="http://www.w3.org/2000/svg" xmlns:xlink="http://www.w3.org/1999/xlink" x="0px" y="0px"
	 width="8.414px" height="9.374px" viewBox="0 0 8.414 9.374" enable-background="new 0 0 8.414 9.374" xml:space="preserve">
<g>
	<path d="M3.979,9.288l-3.845-3.83C0.056,5.379,0.017,5.291,0.017,5.193L0.001,4.869c-0.01-0.167,0.06-0.285,0.207-0.354
		C0.252,4.49,0.3,4.478,0.349,4.478c0.098,0,0.178,0.032,0.242,0.096L3.743,7.8L3.699,0.626c0-0.02,0.001-0.043,0.003-0.07
		c0.004-0.027,0.014-0.074,0.03-0.14C3.75,0.35,3.772,0.29,3.802,0.236c0.03-0.054,0.077-0.106,0.141-0.155
		C4.007,0.032,4.08,0.005,4.163,0c0.143,0.004,0.25,0.047,0.32,0.128c0.072,0.081,0.117,0.171,0.137,0.27L4.649,0.56L4.635,7.793
		L7.78,4.574c0.113-0.113,0.245-0.143,0.398-0.088c0.146,0.059,0.223,0.169,0.227,0.331l0.008,0.332
		c0.01,0.117-0.026,0.208-0.109,0.272L4.466,9.274c-0.064,0.063-0.142,0.096-0.232,0.1C4.142,9.375,4.058,9.346,3.979,9.288z"/>
</g>
</svg>
