<?xml version="1.0" encoding="utf-8"?>
<!-- Generator: Adobe Illustrator 15.0.2, SVG Export Plug-In . SVG Version: 6.00 Build 0)  -->
<!DOCTYPE svg PUBLIC "-//W3C//DTD SVG 1.1//EN" "http://www.w3.org/Graphics/SVG/1.1/DTD/svg11.dtd">
<svg version="1.1" id="Layer_1" xmlns="http://www.w3.org/2000/svg" xmlns:xlink="http://www.w3.org/1999/xlink" x="0px" y="0px"
	 width="21.086px" height="15.968px" viewBox="0 0 21.086 15.968" enable-background="new 0 0 21.086 15.968" xml:space="preserve">
<path d="M20.669,0.393c-3.28-0.52-6.579-0.523-9.862-0.015C7.524-0.13,4.005-0.126,0.725,0.393L0,0.487v15.481l0.989-0.129
	c3.172-0.502,6.646-0.502,9.818,0c3.172-0.502,6.425-0.502,9.599,0l0.68,0.129V0.487L20.669,0.393z M5.623,14.054
	c-1.406,0-2.812,0.094-4.217,0.277V1.694c2.812-0.386,6.326-0.386,8.435,0v12.638C9.138,14.148,7.029,14.054,5.623,14.054z
	 M19.681,14.332c-0.702-0.184-2.812-0.277-4.218-0.277c-1.405,0-2.811,0.094-4.217,0.277V1.694c2.812-0.386,6.326-0.386,8.435,0
	V14.332z"/>
</svg>
