<?xml version="1.0" encoding="utf-8"?>
<!-- Generator: Adobe Illustrator 15.0.2, SVG Export Plug-In . SVG Version: 6.00 Build 0)  -->
<!DOCTYPE svg PUBLIC "-//W3C//DTD SVG 1.1//EN" "http://www.w3.org/Graphics/SVG/1.1/DTD/svg11.dtd">
<svg version="1.1" xmlns="http://www.w3.org/2000/svg" xmlns:xlink="http://www.w3.org/1999/xlink" x="0px" y="0px"
	 width="20.25px" height="20.25px" viewBox="0 0 20.25 20.25" enable-background="new 0 0 20.25 20.25" xml:space="preserve">
<path d="M6.188,19.462c-1.225-0.524-2.3-1.25-3.225-2.174c-0.938-0.938-1.662-2.013-2.175-3.226C0.263,12.825,0,11.513,0,10.125
	c0-1.387,0.263-2.7,0.788-3.938c0.5-1.2,1.225-2.275,2.175-3.225C3.851,2.05,4.925,1.325,6.188,0.788C7.426,0.263,8.738,0,10.125,0
	c1.362,0,2.675,0.263,3.938,0.788c1.25,0.55,2.325,1.275,3.226,2.175C18.237,3.925,18.957,5,19.444,6.188
	c0.537,1.225,0.806,2.538,0.806,3.938c0,1.4-0.269,2.713-0.806,3.938c-0.5,1.2-1.219,2.275-2.156,3.226
	c-0.938,0.924-2.013,1.649-3.226,2.174c-1.263,0.525-2.575,0.788-3.938,0.788C8.738,20.25,7.426,19.987,6.188,19.462z M6.544,1.65
	c-1.125,0.488-2.1,1.144-2.925,1.969c-0.825,0.825-1.481,1.8-1.969,2.925C1.176,7.707,0.938,8.9,0.938,10.125
	c0,1.226,0.238,2.419,0.713,3.581c0.476,1.101,1.132,2.069,1.969,2.906c0.85,0.85,1.825,1.513,2.925,1.988
	c1.138,0.475,2.331,0.712,3.581,0.712c1.226,0,2.419-0.237,3.582-0.712c1.074-0.463,2.043-1.125,2.906-1.988
	c0.874-0.875,1.53-1.844,1.969-2.906c0.487-1.137,0.73-2.331,0.73-3.581c0-1.25-0.243-2.443-0.73-3.581
	c-0.45-1.087-1.106-2.062-1.969-2.925c-0.838-0.837-1.807-1.493-2.906-1.969c-1.163-0.475-2.356-0.712-3.582-0.712
	C8.875,0.938,7.682,1.175,6.544,1.65z M13.388,6.45H11.4c-0.125,0-0.241,0.069-0.347,0.206c-0.106,0.138-0.159,0.312-0.159,0.525
	v1.425h2.493l-0.618,2.081h-1.875v6.206H8.513v-6.206H6.375V8.606h2.138v-1.2c0-0.9,0.275-1.65,0.825-2.25s1.237-0.9,2.062-0.9
	h1.987V6.45z"/>
</svg>
