<?xml version="1.0" encoding="utf-8"?>
<!-- Generator: Adobe Illustrator 15.0.2, SVG Export Plug-In . SVG Version: 6.00 Build 0)  -->
<!DOCTYPE svg PUBLIC "-//W3C//DTD SVG 1.1//EN" "http://www.w3.org/Graphics/SVG/1.1/DTD/svg11.dtd">
<svg version="1.1" xmlns="http://www.w3.org/2000/svg" xmlns:xlink="http://www.w3.org/1999/xlink" x="0px" y="0px"
	 width="20.25px" height="20.25px" viewBox="0 0 20.25 20.25" enable-background="new 0 0 20.25 20.25" xml:space="preserve">
<path d="M19.444,6.188c0.537,1.226,0.806,2.538,0.806,3.938c0,1.4-0.269,2.712-0.806,3.937c-0.5,1.201-1.219,2.275-2.156,3.226
	c-0.938,0.925-2.013,1.649-3.226,2.175c-1.263,0.525-2.575,0.787-3.938,0.787c-1.388,0-2.7-0.262-3.938-0.787
	c-1.225-0.525-2.3-1.25-3.225-2.175C2.025,16.35,1.3,15.275,0.788,14.062C0.263,12.826,0,11.513,0,10.125
	c0-1.387,0.263-2.7,0.788-3.938c0.499-1.2,1.225-2.275,2.175-3.225C3.851,2.05,4.925,1.325,6.188,0.788
	C7.425,0.263,8.737,0,10.125,0c1.362,0,2.675,0.263,3.938,0.788c1.25,0.55,2.325,1.275,3.226,2.175
	C18.237,3.925,18.956,5,19.444,6.188z M1.65,13.707c0.1,0.25,0.199,0.463,0.3,0.637c0.6-0.299,1.225-0.506,1.875-0.618
	c0.875-0.124,1.531-0.188,1.969-0.188c-0.138-0.188-0.281-0.419-0.432-0.694C5.213,12.619,5.138,12.337,5.138,12
	c0-0.188,0.031-0.355,0.094-0.506c0.013-0.049,0.034-0.118,0.065-0.206c0.031-0.087,0.054-0.144,0.065-0.168
	c-0.35,0.025-0.594,0.037-0.73,0.037c-1.2-0.025-2.106-0.4-2.719-1.125C1.5,9.606,1.219,9.131,1.069,8.606
	c-0.088,0.475-0.132,0.981-0.132,1.519C0.938,11.351,1.175,12.544,1.65,13.707z M7.781,19.031l0.206-0.168
	c0.538-0.45,0.807-1.025,0.807-1.725c0-0.588-0.182-1.082-0.544-1.482c-0.362-0.375-0.975-0.868-1.837-1.48
	c-0.2-0.025-0.369-0.037-0.507-0.037c-0.274,0-0.568,0.018-0.881,0.056c-0.425,0.05-0.9,0.157-1.425,0.319l-0.488,0.188
	c-0.175,0.074-0.381,0.213-0.618,0.412l-0.057,0.057c0.35,0.524,0.744,1.006,1.182,1.443c0.85,0.85,1.825,1.512,2.925,1.987
	C6.969,18.788,7.381,18.931,7.781,19.031z M3.319,4.856c-0.338,0.513-0.5,1.069-0.488,1.669c0,0.812,0.237,1.663,0.713,2.55
	c0.213,0.388,0.506,0.731,0.881,1.031c0.363,0.288,0.781,0.431,1.257,0.431C6.269,10.513,6.757,10.3,7.144,9.9
	c0.188-0.25,0.312-0.544,0.375-0.881c0.038-0.3,0.057-0.55,0.057-0.75c0-0.9-0.231-1.793-0.693-2.681
	c-0.2-0.425-0.476-0.781-0.825-1.069C5.669,4.256,5.263,4.125,4.838,4.125C4.226,4.125,3.719,4.369,3.319,4.856z M18.581,13.707
	c0.488-1.15,0.731-2.344,0.731-3.582c0-1.237-0.243-2.431-0.731-3.581c-0.449-1.087-1.105-2.062-1.969-2.925
	c-0.837-0.837-1.806-1.494-2.906-1.969c-1.162-0.475-2.355-0.713-3.581-0.713c-1.25,0-2.443,0.238-3.581,0.713
	c-1.125,0.487-2.1,1.144-2.925,1.969c-0.075,0.075-0.176,0.188-0.3,0.337c0.337-0.175,0.668-0.3,0.993-0.375
	c0.713-0.138,1.351-0.207,1.913-0.207h4.48L9.319,4.182H7.932c0.112,0.062,0.274,0.194,0.487,0.394
	c0.15,0.15,0.312,0.363,0.487,0.638c0.188,0.3,0.325,0.587,0.413,0.862c0.1,0.337,0.149,0.719,0.149,1.144
	c-0.025,0.825-0.2,1.469-0.524,1.932C8.831,9.313,8.65,9.532,8.4,9.807C8.338,9.869,8.271,9.932,8.203,9.994
	s-0.149,0.134-0.243,0.215c-0.094,0.082-0.166,0.147-0.216,0.197c-0.176,0.2-0.3,0.356-0.375,0.469
	c-0.125,0.175-0.188,0.388-0.188,0.638c0,0.25,0.068,0.443,0.206,0.58c0.112,0.15,0.225,0.281,0.338,0.395l0.75,0.619
	c0.499,0.425,0.918,0.855,1.256,1.293c0.338,0.5,0.506,1.119,0.506,1.856c0,1.101-0.475,2.069-1.425,2.906l-0.075,0.056
	c0.388,0.062,0.851,0.094,1.388,0.094c1.226,0,2.419-0.236,3.581-0.712c1.075-0.462,2.044-1.125,2.906-1.987
	C17.487,15.738,18.144,14.769,18.581,13.707z M17.7,10.388h0.057v1.387h-2.419v2.344h-1.369v-2.344h-2.362v-0.057h-0.019v-1.349
	h2.381v-2.4h1.369v2.4H17.7V10.388z"/>
</svg>
