<?xml version="1.0" encoding="utf-8"?>
<!-- Generator: Adobe Illustrator 15.0.2, SVG Export Plug-In . SVG Version: 6.00 Build 0)  -->
<!DOCTYPE svg PUBLIC "-//W3C//DTD SVG 1.1//EN" "http://www.w3.org/Graphics/SVG/1.1/DTD/svg11.dtd">
<svg version="1.1" xmlns="http://www.w3.org/2000/svg" xmlns:xlink="http://www.w3.org/1999/xlink" x="0px" y="0px"
	 width="21.863px" height="17.689px" viewBox="0 0 21.863 17.689" enable-background="new 0 0 21.863 17.689" xml:space="preserve">
<g>
	<path d="M6.063,10.235v4.173H3.282v-4.173H6.063L6.063,10.235z M10.236,4.672v9.736H7.455V4.672H10.236z M14.409,7.455v6.954
		h-2.782V7.455H14.409z M18.581,3.282v11.126h-2.78V3.282H18.581L18.581,3.282z"/>
	<g>
		<path d="M19.625,17.689H2.239c-0.615,0-1.147-0.221-1.582-0.656C0.222,16.598,0,16.065,0,15.451V2.238
			c0-0.614,0.222-1.146,0.659-1.582C1.091,0.222,1.624,0,2.239,0h17.386c0.613,0,1.145,0.221,1.581,0.657
			c0.436,0.436,0.657,0.967,0.657,1.581v13.213c0,0.613-0.221,1.146-0.657,1.582C20.77,17.469,20.237,17.689,19.625,17.689z
			 M2.239,1c-0.344,0-0.63,0.119-0.873,0.363C1.116,1.613,1,1.89,1,2.238v13.213c0,0.349,0.116,0.626,0.365,0.874
			c0.245,0.245,0.53,0.364,0.875,0.364h17.386c0.343,0,0.629-0.119,0.874-0.364c0.248-0.248,0.364-0.525,0.364-0.874V2.238
			c0-0.343-0.119-0.629-0.364-0.874C20.254,1.119,19.968,1,19.625,1H2.239z"/>
	</g>
</g>
</svg>
