<?xml version="1.0" encoding="utf-8"?>
<!-- Generator: Adobe Illustrator 15.0.2, SVG Export Plug-In . SVG Version: 6.00 Build 0)  -->
<!DOCTYPE svg PUBLIC "-//W3C//DTD SVG 1.1//EN" "http://www.w3.org/Graphics/SVG/1.1/DTD/svg11.dtd">
<svg version="1.1" xmlns="http://www.w3.org/2000/svg" xmlns:xlink="http://www.w3.org/1999/xlink" x="0px" y="0px"
	 width="23.625px" height="23.625px" viewBox="0 0 23.625 23.625" enable-background="new 0 0 23.625 23.625" xml:space="preserve">
<path d="M7.219,22.706c-1.43-0.611-2.684-1.458-3.763-2.537c-1.094-1.094-1.939-2.348-2.538-3.762C0.306,14.962,0,13.431,0,11.812
	s0.306-3.15,0.918-4.594c0.584-1.4,1.43-2.654,2.538-3.763c1.035-1.064,2.289-1.91,3.763-2.538C8.662,0.306,10.193,0,11.812,0
	c1.589,0,3.12,0.306,4.594,0.918c1.458,0.642,2.712,1.488,3.762,2.538c1.108,1.123,1.947,2.377,2.516,3.763
	c0.627,1.429,0.941,2.96,0.941,4.594s-0.314,3.165-0.941,4.594c-0.583,1.399-1.422,2.654-2.516,3.762
	c-1.094,1.079-2.348,1.926-3.762,2.537c-1.474,0.613-3.005,0.92-4.594,0.92C10.193,23.625,8.662,23.319,7.219,22.706z M7.634,1.925
	c-1.312,0.569-2.45,1.334-3.412,2.297c-0.963,0.962-1.729,2.1-2.297,3.413c-0.555,1.356-0.831,2.749-0.831,4.178
	s0.276,2.822,0.831,4.178c0.554,1.283,1.319,2.414,2.297,3.391c0.991,0.991,2.129,1.764,3.412,2.318
	c1.327,0.555,2.72,0.832,4.179,0.832c1.429,0,2.821-0.277,4.178-0.832c1.254-0.539,2.385-1.312,3.391-2.318
	c1.021-1.021,1.786-2.151,2.297-3.391c0.568-1.342,0.854-2.734,0.854-4.178s-0.285-2.836-0.854-4.178
	c-0.525-1.269-1.291-2.406-2.297-3.413c-0.978-0.977-2.107-1.742-3.391-2.297c-1.356-0.554-2.749-0.831-4.178-0.831
	C10.354,1.094,8.961,1.371,7.634,1.925z M5.402,5.644C5.023,6.023,4.834,6.482,4.834,7.022v9.756c0,0.54,0.189,0.996,0.568,1.367
	c0.38,0.372,0.839,0.559,1.379,0.559h9.734c0.539,0,0.998-0.187,1.378-0.559c0.379-0.371,0.568-0.827,0.568-1.367V7.022
	c0-0.54-0.189-0.999-0.568-1.378c-0.38-0.379-0.839-0.569-1.378-0.569H6.781C6.241,5.075,5.782,5.265,5.402,5.644z M16.996,16.778
	c0,0.131-0.047,0.244-0.142,0.34c-0.095,0.094-0.208,0.142-0.339,0.142H6.781c-0.132,0-0.245-0.048-0.34-0.142
	C6.347,17.022,6.3,16.909,6.3,16.778v-5.862h1.575c-0.073,0.277-0.109,0.605-0.109,0.984c0,1.079,0.379,1.998,1.137,2.757
	c0.759,0.758,1.678,1.137,2.757,1.137c1.064,0,1.976-0.379,2.734-1.137c0.758-0.759,1.138-1.678,1.138-2.757
	c0-0.379-0.037-0.707-0.109-0.984h1.574V16.778z M13.376,10.183c0.474,0.474,0.711,1.047,0.711,1.717
	c0,0.671-0.237,1.243-0.711,1.718c-0.474,0.474-1.046,0.711-1.717,0.711s-1.247-0.237-1.729-0.711
	c-0.481-0.475-0.722-1.047-0.722-1.718c0-0.67,0.237-1.243,0.711-1.717c0.474-0.474,1.054-0.711,1.739-0.711
	C12.33,9.472,12.902,9.709,13.376,10.183z M16.854,8.827c-0.095,0.095-0.208,0.142-0.339,0.142h-1.444
	c-0.146,0-0.266-0.047-0.36-0.142c-0.096-0.095-0.143-0.208-0.143-0.339V7.022c0-0.131,0.047-0.244,0.143-0.339
	c0.095-0.095,0.215-0.142,0.36-0.142h1.444c0.131,0,0.244,0.047,0.339,0.142c0.095,0.095,0.142,0.208,0.142,0.339v1.465
	C16.996,8.619,16.949,8.732,16.854,8.827z"/>
</svg>
