<?xml version="1.0" encoding="utf-8"?>
<!-- Generator: Adobe Illustrator 15.0.2, SVG Export Plug-In . SVG Version: 6.00 Build 0)  -->
<!DOCTYPE svg PUBLIC "-//W3C//DTD SVG 1.1//EN" "http://www.w3.org/Graphics/SVG/1.1/DTD/svg11.dtd">
<svg version="1.1" xmlns="http://www.w3.org/2000/svg" xmlns:xlink="http://www.w3.org/1999/xlink" x="0px" y="0px"
	 width="50px" height="62px" viewBox="0 0 50 62" enable-background="new 0 0 50 62" xml:space="preserve">
<g>
	<path d="M45.425,0H6.026C3.236,0,0,2.239,0,5v52c0,2.762,3.236,5,6.026,5h39.398C48.215,62,50,59.762,50,57V5
		C50,2.239,48.215,0,45.425,0z M25.726,4.189c0.592,0,1.071,0.475,1.071,1.061s-0.479,1.061-1.071,1.061s-1.071-0.475-1.071-1.061
		S25.134,4.189,25.726,4.189z M25.726,57.664c-1.346,0-2.438-1.082-2.438-2.414c0-1.334,1.092-2.414,2.438-2.414
		c1.348,0,2.438,1.08,2.438,2.414C28.163,56.582,27.073,57.664,25.726,57.664z M43,50H7V8h36V50z"/>
	<ellipse cx="25.726" cy="55.25" rx="1.071" ry="1.061"/>
</g>
</svg>
