<?xml version="1.0" encoding="utf-8"?>
<!-- Generator: Adobe Illustrator 15.0.2, SVG Export Plug-In . SVG Version: 6.00 Build 0)  -->
<!DOCTYPE svg PUBLIC "-//W3C//DTD SVG 1.1//EN" "http://www.w3.org/Graphics/SVG/1.1/DTD/svg11.dtd">
<svg version="1.1" id="Layer_1" xmlns="http://www.w3.org/2000/svg" xmlns:xlink="http://www.w3.org/1999/xlink" x="0px" y="0px"
	 width="80px" height="62px" viewBox="0 0 80 62" enable-background="new 0 0 80 62" xml:space="preserve">
<g>
	<rect x="12" y="58" width="32" height="4"/>
	<rect x="22" y="50" width="14" height="7"/>
	<path d="M78.358,18H58V2.383C58,0.817,57.175,0,55.608,0H2.65C1.085,0,0,0.817,0,2.383v43.916C0,47.861,1.085,49,2.65,49H46v10.879
		C46,61.043,46.466,62,47.63,62h30.729C79.521,62,80,61.043,80,59.879V19.546C80,18.381,79.521,18,78.358,18z M5,44V5h48v13h-5.37
		C46.466,18,46,18.381,46,19.546V44H5z M53,21v23h-3V21H53z M62.999,61.025c-0.631,0-1.141-0.51-1.141-1.141
		c0-0.629,0.51-1.141,1.141-1.141c0.629,0,1.14,0.512,1.14,1.141C64.139,60.516,63.628,61.025,62.999,61.025z M76,58H50v-9h5.608
		C57.175,49,58,47.861,58,46.299V21h18V58z"/>
</g>
</svg>
