<?xml version="1.0" encoding="utf-8"?>
<!-- Generator: Adobe Illustrator 15.0.2, SVG Export Plug-In . SVG Version: 6.00 Build 0)  -->
<!DOCTYPE svg PUBLIC "-//W3C//DTD SVG 1.1//EN" "http://www.w3.org/Graphics/SVG/1.1/DTD/svg11.dtd">
<svg version="1.1" xmlns="http://www.w3.org/2000/svg" xmlns:xlink="http://www.w3.org/1999/xlink" x="0px" y="0px"
	 width="18.611px" height="14.486px" viewBox="0 0 18.611 14.486" enable-background="new 0 0 18.611 14.486" xml:space="preserve">
<g>
	<path d="M9.325,14.486c-0.006,0-0.013,0-0.02,0s-0.013,0-0.019,0H9.325z"/>
	<path d="M9.287,0c0.006,0,0.012,0,0.019,0s0.013,0,0.019,0H9.287z"/>
	<circle cx="9.371" cy="7.491" r="2.693"/>
	<path d="M18.608,8.078c-0.012-1.005-0.061-2.013-0.201-3.01c-0.1-0.71-0.131-1.757-0.904-2.148
		c-0.537-0.273-1.486-0.244-2.092-0.295c-0.555-0.046-1.25,0.078-1.609-0.352c-0.287-0.341-0.498-0.735-0.689-1.126
		c-0.316-0.647-0.309-0.831-1.143-0.963C11.097,0.046,10.199,0,9.305,0S7.513,0.046,6.641,0.184
		C5.806,0.315,5.814,0.499,5.498,1.146C5.306,1.537,5.095,1.932,4.809,2.272C4.448,2.702,3.753,2.578,3.2,2.624
		C2.593,2.675,1.645,2.646,1.106,2.919C0.334,3.311,0.302,4.357,0.202,5.067c-0.14,0.997-0.188,2.005-0.199,3.01
		c-0.012,0.973,0.016,1.947,0.104,2.916c0.068,0.753,0.075,1.854,0.494,2.521c0.632,1.007,3.302,0.83,4.387,0.879
		c1.438,0.064,2.878,0.092,4.318,0.092c1.44,0,2.881-0.027,4.319-0.092c1.084-0.049,3.754,0.128,4.385-0.879
		c0.42-0.668,0.428-1.769,0.496-2.521C18.591,10.025,18.62,9.05,18.608,8.078z M9.371,11.974c-2.476,0-4.483-2.008-4.483-4.483
		c0-2.476,2.007-4.483,4.483-4.483s4.482,2.007,4.482,4.483C13.853,9.966,11.847,11.974,9.371,11.974z"/>
</g>
</svg>
