<?xml version="1.0" encoding="utf-8"?>
<!-- Generator: Adobe Illustrator 15.0.2, SVG Export Plug-In . SVG Version: 6.00 Build 0)  -->
<!DOCTYPE svg PUBLIC "-//W3C//DTD SVG 1.1//EN" "http://www.w3.org/Graphics/SVG/1.1/DTD/svg11.dtd">
<svg version="1.1" id="Layer_1" xmlns="http://www.w3.org/2000/svg" xmlns:xlink="http://www.w3.org/1999/xlink" x="0px" y="0px"
	 width="19.546px" height="19.527px" viewBox="0 0 19.546 19.527" enable-background="new 0 0 19.546 19.527" xml:space="preserve">
<g>
	<g>
		<g>
			<path d="M9.781,19.527c-1.323,0-2.605-0.255-3.812-0.758c-1.206-0.53-2.245-1.235-3.098-2.102
				c-0.912-0.911-1.618-1.958-2.097-3.109C0.261,12.35,0,11.072,0,9.763s0.261-2.587,0.776-3.799
				C1.254,4.816,1.96,3.769,2.874,2.855C3.75,1.979,4.788,1.274,5.961,0.761c2.403-1.011,5.207-1.017,7.616-0.003
				c1.184,0.519,2.222,1.224,3.094,2.098c0.911,0.91,1.617,1.958,2.099,3.112c0.515,1.206,0.776,2.484,0.776,3.795
				s-0.262,2.589-0.778,3.799c-0.479,1.15-1.186,2.198-2.098,3.108c-0.849,0.862-1.888,1.568-3.085,2.095
				C12.382,19.272,11.104,19.527,9.781,19.527z M9.781,0.998c-1.197,0-2.349,0.229-3.425,0.682C5.304,2.14,4.368,2.774,3.581,3.562
				c-0.821,0.821-1.454,1.76-1.883,2.79C1.234,7.442,1,8.588,1,9.763s0.234,2.321,0.696,3.408c0.43,1.033,1.064,1.972,1.885,2.793
				c0.767,0.777,1.702,1.411,2.782,1.886c2.149,0.896,4.681,0.901,6.826-0.003c1.073-0.472,2.008-1.105,2.771-1.88
				c0.823-0.821,1.456-1.76,1.886-2.793c0.465-1.089,0.7-2.235,0.7-3.411s-0.235-2.321-0.698-3.407
				c-0.432-1.037-1.065-1.976-1.885-2.793c-0.783-0.786-1.719-1.42-2.78-1.886C12.114,1.227,10.967,0.998,9.781,0.998z"/>
		</g>
	</g>
	<path d="M14.483,10.055V9.471c0-0.171-0.064-0.257-0.189-0.257H5.269c-0.126,0-0.189,0.086-0.189,0.257v0.583
		c0,0.183,0.063,0.274,0.189,0.274h9.025C14.419,10.329,14.483,10.238,14.483,10.055z"/>
</g>
</svg>
