<?xml version="1.0" encoding="utf-8"?>
<!-- Generator: Adobe Illustrator 15.0.2, SVG Export Plug-In . SVG Version: 6.00 Build 0)  -->
<!DOCTYPE svg PUBLIC "-//W3C//DTD SVG 1.1//EN" "http://www.w3.org/Graphics/SVG/1.1/DTD/svg11.dtd">
<svg version="1.1" id="Layer_1" xmlns="http://www.w3.org/2000/svg" xmlns:xlink="http://www.w3.org/1999/xlink" x="0px" y="0px"
	 width="20.25px" height="20.25px" viewBox="0 0 20.25 20.25" enable-background="new 0 0 20.25 20.25" xml:space="preserve">
<path d="M19.443,6.188c0.538,1.225,0.807,2.538,0.807,3.938c0,1.4-0.269,2.713-0.807,3.938c-0.5,1.199-1.219,2.275-2.156,3.225
	c-0.938,0.926-2.013,1.65-3.225,2.176c-1.263,0.524-2.575,0.787-3.938,0.787c-1.388,0-2.7-0.263-3.938-0.787
	c-1.226-0.525-2.3-1.25-3.225-2.176C2.025,16.35,1.3,15.275,0.787,14.062C0.263,12.824,0,11.512,0,10.125
	c0-1.388,0.263-2.7,0.787-3.938c0.5-1.2,1.226-2.275,2.176-3.225C3.85,2.05,4.925,1.325,6.188,0.788C7.425,0.262,8.737,0,10.125,0
	c1.362,0,2.675,0.262,3.938,0.788c1.25,0.55,2.325,1.275,3.225,2.175C18.237,3.925,18.956,5,19.443,6.188z M18.581,13.706
	c0.487-1.149,0.731-2.344,0.731-3.581c0-1.238-0.244-2.431-0.731-3.582c-0.45-1.087-1.106-2.062-1.969-2.925
	c-0.837-0.837-1.807-1.494-2.906-1.969c-1.162-0.475-2.356-0.712-3.581-0.712c-1.25,0-2.444,0.237-3.581,0.712
	C5.419,2.137,4.443,2.793,3.619,3.619c-0.825,0.825-1.481,1.8-1.969,2.925C1.175,7.706,0.938,8.9,0.938,10.125
	c0,1.225,0.237,2.418,0.713,3.581c0.475,1.101,1.131,2.069,1.969,2.906c0.75,0.75,1.631,1.368,2.644,1.856
	c-0.025-0.738,0.031-1.375,0.169-1.912l1.237-5.194c-0.213-0.399-0.319-0.9-0.319-1.5c0-0.7,0.179-1.287,0.535-1.762
	c0.355-0.475,0.79-0.713,1.303-0.713c0.4,0,0.713,0.138,0.938,0.413c0.225,0.275,0.338,0.619,0.338,1.031
	c0,0.25-0.047,0.56-0.141,0.928s-0.219,0.793-0.375,1.275C9.79,11.516,9.682,11.9,9.619,12.188c-0.125,0.5-0.035,0.928,0.271,1.284
	s0.716,0.534,1.229,0.534c0.887,0,1.612-0.487,2.175-1.463c0.562-0.975,0.844-2.162,0.844-3.562c0-1.087-0.347-1.969-1.041-2.644
	c-0.693-0.675-1.659-1.013-2.896-1.013c-1.4,0-2.531,0.447-3.394,1.341C5.943,7.56,5.513,8.631,5.513,9.881
	c0,0.725,0.199,1.349,0.6,1.875c0.15,0.176,0.206,0.351,0.169,0.525c-0.05,0.15-0.119,0.4-0.206,0.75
	C6,13.281,5.838,13.362,5.588,13.275c-0.638-0.25-1.119-0.703-1.444-1.359S3.656,10.5,3.656,9.637c0-0.7,0.146-1.394,0.44-2.081
	S4.81,6.234,5.354,5.653C5.896,5.072,6.612,4.6,7.5,4.237c0.888-0.362,1.875-0.543,2.963-0.543c1.737,0,3.171,0.543,4.303,1.631
	c1.131,1.088,1.697,2.363,1.697,3.825c0,1.887-0.476,3.448-1.426,4.678c-0.949,1.231-2.181,1.847-3.693,1.847
	c-0.5,0-0.972-0.118-1.416-0.356C9.484,15.082,9.175,14.801,9,14.475C8.638,15.95,8.419,16.825,8.344,17.1
	c-0.15,0.551-0.432,1.162-0.844,1.838c0.862,0.25,1.737,0.375,2.625,0.375c1.225,0,2.419-0.238,3.581-0.713
	c1.075-0.463,2.044-1.125,2.906-1.987C17.487,15.738,18.144,14.769,18.581,13.706z"/>
</svg>
