<?xml version="1.0" encoding="utf-8"?>
<!-- Generator: Adobe Illustrator 15.0.2, SVG Export Plug-In . SVG Version: 6.00 Build 0)  -->
<!DOCTYPE svg PUBLIC "-//W3C//DTD SVG 1.1//EN" "http://www.w3.org/Graphics/SVG/1.1/DTD/svg11.dtd">
<svg version="1.1" id="Layer_1" xmlns="http://www.w3.org/2000/svg" xmlns:xlink="http://www.w3.org/1999/xlink" x="0px" y="0px"
	 width="15.7px" height="15.176px" viewBox="0 0 15.7 15.176" enable-background="new 0 0 15.7 15.176" xml:space="preserve">
<path d="M7.825,0c1.455,0,2.871,0.082,4.249,0.246c0.153,0.022,0.269,0.088,0.345,0.197c0.076,0.077,0.115,0.191,0.115,0.345v3.133
	c0.711,0.066,1.548,0.17,2.51,0.312c0.164,0.033,0.317,0.126,0.46,0.279C15.635,4.698,15.7,4.867,15.7,5.021v7.267
	c0,0.23-0.082,0.416-0.246,0.559c-0.153,0.164-0.339,0.246-0.558,0.246H13.83l-0.804-3.807c0-0.109-0.055-0.197-0.164-0.262
	c-0.088-0.076-0.197-0.115-0.328-0.115H3.183c-0.132,0-0.241,0.039-0.328,0.115c-0.088,0.032-0.153,0.12-0.197,0.262L1.87,13.092
	H0.787c-0.229,0-0.41-0.082-0.541-0.246C0.082,12.704,0,12.518,0,12.288V5.021c0-0.142,0.06-0.312,0.18-0.509
	c0.164-0.164,0.323-0.257,0.477-0.279c0.973-0.142,1.799-0.246,2.477-0.312V0.788c0-0.142,0.044-0.257,0.132-0.345
	C3.341,0.334,3.45,0.268,3.593,0.246C5.004,0.082,6.414,0,7.825,0z M11.796,10.221l0.984,4.299l0.017,0.049
	c0.011,0.033,0.016,0.061,0.016,0.082c0,0.109-0.055,0.229-0.164,0.361c-0.109,0.109-0.24,0.164-0.394,0.164H3.412
	c-0.164,0-0.284-0.055-0.361-0.164c-0.109-0.076-0.164-0.197-0.164-0.361c0-0.021,0-0.049,0-0.082l0.017-0.049l0.968-4.299H11.796z"
	/>
</svg>
