<?xml version="1.0" encoding="utf-8"?>
<!-- Generator: Adobe Illustrator 15.0.2, SVG Export Plug-In . SVG Version: 6.00 Build 0)  -->
<!DOCTYPE svg PUBLIC "-//W3C//DTD SVG 1.1//EN" "http://www.w3.org/Graphics/SVG/1.1/DTD/svg11.dtd">
<svg version="1.1" xmlns="http://www.w3.org/2000/svg" xmlns:xlink="http://www.w3.org/1999/xlink" x="0px" y="0px"
	 width="8.121px" height="12.987px" viewBox="0 0 8.121 12.987" enable-background="new 0 0 8.121 12.987" xml:space="preserve">
<g>
	<path d="M7.403,4.69c-0.175,0.228-0.297,0.402-0.98,1.19C5.356,7.105,5.006,7.718,4.866,8.768H2.223
		C2.188,8.576,2.17,8.436,2.17,8.331c0-0.683,0.333-1.453,1.4-3.238C4.183,4.06,4.358,3.64,4.358,3.133
		c0-0.718-0.473-1.173-1.226-1.173c-0.857,0-1.487,0.63-1.925,1.12L0,1.68C1.26,0.438,2.311,0,4.061,0
		c2.275,0,4.061,0.945,4.061,2.678C8.121,3.343,7.964,3.938,7.403,4.69z M3.483,12.987c-0.927,0-1.645-0.684-1.645-1.559
		c0-1.015,0.683-1.697,1.68-1.697c0.893,0,1.575,0.717,1.575,1.645S4.411,12.987,3.483,12.987z"/>
</g>
</svg>
