<?xml version="1.0" encoding="utf-8"?>
<!-- Generator: Adobe Illustrator 15.0.2, SVG Export Plug-In . SVG Version: 6.00 Build 0)  -->
<!DOCTYPE svg PUBLIC "-//W3C//DTD SVG 1.1//EN" "http://www.w3.org/Graphics/SVG/1.1/DTD/svg11.dtd">
<svg version="1.1" id="Layer_1" xmlns="http://www.w3.org/2000/svg" xmlns:xlink="http://www.w3.org/1999/xlink" x="0px" y="0px"
	 width="22.104px" height="9.236px" viewBox="0 0 22.104 9.236" enable-background="new 0 0 22.104 9.236" xml:space="preserve">
<path d="M21.378,4.338c-0.134-1-0.64-2.213-1.436-2.955c-0.856-0.799-1.974-1.311-3.144-1.311c-1.987,0-3.761,1.258-4.379,3.134
	c-0.369-0.292-0.884-0.491-1.366-0.491c-0.483,0-1,0.173-1.369,0.464C9.062,1.275,7.326,0.004,5.306,0.004
	c-1.172,0-2.289,0.579-3.144,1.375c-0.792,0.743-1.3,1.959-1.436,2.959H0v1h0.726c0.136,1,0.644,1.999,1.437,2.737
	c0.859,0.799,1.975,1.199,3.144,1.199c2.546,0,4.617-2.089,4.617-4.638c0-0.42,0.504-0.938,1.131-0.938
	c0.624,0,1.127,0.503,1.127,0.928c0,2.544,2.071,4.612,4.618,4.612c1.175,0,2.291-0.361,3.144-1.159
	c0.796-0.742,1.304-1.741,1.437-2.741h0.725l0.001-1H21.378z M16.799,8.25c-2.003,0-3.632-1.629-3.632-3.632
	c0-2.002,1.629-3.631,3.632-3.631s3.632,1.629,3.632,3.631C20.431,6.621,18.802,8.25,16.799,8.25z M5.306,8.25
	c-2.002,0-3.631-1.629-3.631-3.632c0-2.002,1.629-3.631,3.631-3.631s3.631,1.629,3.631,3.631C8.937,6.621,7.308,8.25,5.306,8.25z"/>
</svg>
