<?xml version="1.0" encoding="utf-8"?>
<!-- Generator: Adobe Illustrator 15.0.2, SVG Export Plug-In . SVG Version: 6.00 Build 0)  -->
<!DOCTYPE svg PUBLIC "-//W3C//DTD SVG 1.1//EN" "http://www.w3.org/Graphics/SVG/1.1/DTD/svg11.dtd">
<svg version="1.1" xmlns="http://www.w3.org/2000/svg" xmlns:xlink="http://www.w3.org/1999/xlink" x="0px" y="0px"
	 width="15.262px" height="14.884px" viewBox="0 0 15.262 14.884" enable-background="new 0 0 15.262 14.884" xml:space="preserve">
<path d="M4.891,1.779C2.953,3.717,2.6,6.637,3.827,8.935l-3.388,3.388c-0.586,0.586-0.586,1.536,0,2.122s1.535,0.586,2.121,0
	l3.291-3.291c2.357,1.552,5.557,1.291,7.631-0.783c2.373-2.373,2.373-6.219,0-8.592C11.109-0.594,7.264-0.593,4.891,1.779z
	 M12.436,9.324c-1.795,1.795-4.703,1.795-6.498,0c-1.795-1.794-1.795-4.704,0-6.498s4.703-1.794,6.498,0S14.23,7.529,12.436,9.324z"
	/>
</svg>
