<?xml version="1.0" encoding="utf-8"?>
<!-- Generator: Adobe Illustrator 15.0.2, SVG Export Plug-In . SVG Version: 6.00 Build 0)  -->
<!DOCTYPE svg PUBLIC "-//W3C//DTD SVG 1.1//EN" "http://www.w3.org/Graphics/SVG/1.1/DTD/svg11.dtd">
<svg version="1.1" id="Layer_1" xmlns="http://www.w3.org/2000/svg" xmlns:xlink="http://www.w3.org/1999/xlink" x="0px" y="0px"
	 width="2px" height="34px" viewBox="0 0 2 34" enable-background="new 0 0 2 34" xml:space="preserve">
<g>
	<path d="M0,34v-2h2v2C0,34,2,34,0,34z M0,30v-2h2v2C0,30,2,30,0,30z M0,26v-2h2v2C0,26,2,26,0,26z M0,22v-2h2v2C0,22,2,22,0,22z
		 M0,18v-2h2v2C0,18,2,18,0,18z M0,14v-2h2v2C0,14,2,14,0,14z M0,10V8h2v2C0,10,2,10,0,10z M0,6V4h2v2C0,6,2,6,0,6z M0,2V0h2v2
		C0,2,2,2,0,2z"/>
</g>
</svg>
