<?xml version="1.0" encoding="utf-8"?>
<!-- Generator: Adobe Illustrator 15.0.2, SVG Export Plug-In . SVG Version: 6.00 Build 0)  -->
<!DOCTYPE svg PUBLIC "-//W3C//DTD SVG 1.1//EN" "http://www.w3.org/Graphics/SVG/1.1/DTD/svg11.dtd">
<svg version="1.1" xmlns="http://www.w3.org/2000/svg" xmlns:xlink="http://www.w3.org/1999/xlink" x="0px" y="0px"
	 width="48.521px" height="62px" viewBox="0 0 48.521 62" enable-background="new 0 0 48.521 62" xml:space="preserve">
<g>
	<g>
		<path d="M45.826,0H2.695C1.062,0,0,1.061,0,2.696v56.608C0,60.938,1.062,62,2.695,62h43.131c1.632,0,2.694-1.062,2.694-2.696
			V2.696C48.521,1.061,47.458,0,45.826,0z M24.269,60.913c-0.884,0-1.602-0.715-1.602-1.601c0-0.884,0.718-1.601,1.602-1.601
			c0.883,0,1.601,0.717,1.601,1.601C25.869,60.198,25.151,60.913,24.269,60.913z M43.13,56.608H5.392V5.392H43.13V56.608z"/>
	</g>
</g>
</svg>
