<?xml version="1.0" encoding="utf-8"?>
<!-- Generator: Adobe Illustrator 15.0.2, SVG Export Plug-In . SVG Version: 6.00 Build 0)  -->
<!DOCTYPE svg PUBLIC "-//W3C//DTD SVG 1.1//EN" "http://www.w3.org/Graphics/SVG/1.1/DTD/svg11.dtd">
<svg version="1.1" xmlns="http://www.w3.org/2000/svg" xmlns:xlink="http://www.w3.org/1999/xlink" x="0px" y="0px"
	 width="20.269px" height="20.25px" viewBox="0 0 20.269 20.25" enable-background="new 0 0 20.269 20.25" xml:space="preserve">
<path d="M6.188,19.462c-1.25-0.549-2.319-1.274-3.206-2.174c-0.95-0.95-1.676-2.025-2.176-3.226C0.269,12.8,0,11.487,0,10.125
	S0.269,7.45,0.806,6.188c0.5-1.2,1.226-2.275,2.176-3.225c0.912-0.912,1.98-1.637,3.206-2.175C7.45,0.263,8.769,0,10.144,0
	c1.362,0,2.675,0.263,3.938,0.788c1.225,0.538,2.294,1.263,3.206,2.175c0.95,0.95,1.675,2.025,2.175,3.225
	C20,7.45,20.269,8.763,20.269,10.125S20,12.8,19.462,14.062c-0.5,1.2-1.225,2.275-2.175,3.226c-0.888,0.899-1.956,1.625-3.206,2.174
	c-1.25,0.525-2.562,0.788-3.938,0.788S7.45,19.987,6.188,19.462z M6.562,1.65C5.449,2.113,4.475,2.769,3.638,3.619
	C2.8,4.481,2.144,5.457,1.669,6.544c-0.488,1.15-0.731,2.344-0.731,3.581s0.243,2.432,0.731,3.581
	c0.487,1.125,1.144,2.1,1.969,2.926c0.837,0.85,1.812,1.506,2.925,1.969c1.137,0.475,2.331,0.712,3.581,0.712
	c1.237,0,2.425-0.237,3.562-0.712c1.1-0.463,2.075-1.119,2.925-1.969c0.825-0.826,1.481-1.801,1.969-2.926
	c0.487-1.149,0.731-2.344,0.731-3.581c0-1.25-0.244-2.443-0.731-3.581c-0.462-1.087-1.118-2.062-1.969-2.925
	c-0.85-0.85-1.825-1.506-2.925-1.969c-1.138-0.475-2.325-0.712-3.562-0.712C8.894,0.938,7.699,1.175,6.562,1.65z M15.131,8.344
	v0.319c0,1.138-0.263,2.203-0.787,3.197c-0.525,0.993-1.301,1.828-2.325,2.503c-1.112,0.726-2.344,1.088-3.693,1.088
	c-1.312,0-2.531-0.362-3.656-1.088c0.074,0.013,0.274,0.02,0.6,0.02c1.162,0,2.138-0.332,2.925-0.994
	c-0.513-0.012-0.969-0.172-1.368-0.479c-0.4-0.306-0.682-0.703-0.844-1.19c0.149,0.038,0.3,0.056,0.449,0.056
	c0.125,0,0.325-0.024,0.601-0.074c-0.551-0.125-1.003-0.409-1.359-0.853S5.138,9.894,5.138,9.319c0.35,0.188,0.712,0.288,1.087,0.3
	C5.5,9.131,5.138,8.463,5.138,7.613c0-0.388,0.118-0.788,0.355-1.2c1.25,1.562,2.895,2.4,4.932,2.513
	c-0.05-0.15-0.075-0.338-0.075-0.562c0-0.65,0.234-1.207,0.703-1.669S12.087,6,12.75,6c0.712,0,1.287,0.238,1.725,0.712
	c0.612-0.137,1.119-0.318,1.519-0.543c-0.199,0.575-0.556,1.012-1.068,1.312c0.425-0.062,0.888-0.188,1.388-0.375
	C16.062,7.506,15.668,7.919,15.131,8.344z"/>
</svg>
