<?xml version="1.0" encoding="utf-8"?>
<!-- Generator: Adobe Illustrator 15.0.2, SVG Export Plug-In . SVG Version: 6.00 Build 0)  -->
<!DOCTYPE svg PUBLIC "-//W3C//DTD SVG 1.1//EN" "http://www.w3.org/Graphics/SVG/1.1/DTD/svg11.dtd">
<svg version="1.1" xmlns="http://www.w3.org/2000/svg" xmlns:xlink="http://www.w3.org/1999/xlink" x="0px" y="0px"
	 width="20.25px" height="20.25px" viewBox="0 0 20.25 20.25" enable-background="new 0 0 20.25 20.25" xml:space="preserve">
<g>
	<path d="M6.188,19.462c-1.199-0.5-2.275-1.225-3.225-2.174c-0.95-0.95-1.676-2.025-2.176-3.226C0.263,12.825,0,11.513,0,10.125
		C0,8.763,0.263,7.45,0.787,6.188C1.301,4.975,2.025,3.9,2.963,2.962C3.926,2.013,5,1.294,6.188,0.806C7.412,0.269,8.725,0,10.125,0
		c1.388,0,2.7,0.269,3.938,0.806c1.2,0.5,2.275,1.219,3.225,2.156c0.938,0.95,1.656,2.025,2.156,3.225
		c0.538,1.237,0.807,2.55,0.807,3.938c0,1.399-0.269,2.712-0.807,3.938c-0.486,1.188-1.205,2.263-2.156,3.226
		c-0.938,0.938-2.012,1.662-3.225,2.174c-1.262,0.525-2.574,0.788-3.938,0.788C8.738,20.25,7.426,19.987,6.188,19.462z M6.544,1.669
		c-1.087,0.45-2.062,1.106-2.925,1.969C2.781,4.475,2.125,5.444,1.65,6.544C1.176,7.706,0.938,8.9,0.938,10.125
		c0,1.25,0.238,2.444,0.713,3.581c0.487,1.125,1.144,2.1,1.969,2.926c0.824,0.824,1.8,1.48,2.925,1.969
		c1.138,0.475,2.331,0.712,3.581,0.712c1.225,0,2.419-0.237,3.582-0.712c1.1-0.476,2.068-1.132,2.906-1.969
		c0.861-0.863,1.518-1.838,1.969-2.926c0.486-1.125,0.73-2.318,0.73-3.581c0-1.237-0.244-2.431-0.73-3.581
		c-0.438-1.062-1.094-2.031-1.969-2.906s-1.844-1.531-2.906-1.969c-1.15-0.488-2.344-0.731-3.582-0.731
		C8.863,0.938,7.669,1.181,6.544,1.669z M14.568,9.084c-0.149-0.119-0.469-0.35-0.955-0.694c-0.488-0.344-0.976-0.672-1.463-0.984
		c-0.488-0.312-1.098-0.663-1.828-1.05C9.591,5.969,8.875,5.631,8.176,5.344C8.088,5.306,7.988,5.288,7.875,5.288
		c-0.125,0-0.25,0.031-0.375,0.094C7.287,5.519,7.169,5.712,7.145,5.962C7.131,6,7.113,6.197,7.088,6.553
		C7.062,6.909,7.037,7.416,7.013,8.072S6.975,9.363,6.975,9.975s0.014,1.244,0.038,1.893c0.024,0.65,0.05,1.156,0.075,1.52
		c0.025,0.362,0.043,0.562,0.057,0.6c0.024,0.25,0.143,0.438,0.355,0.562c0.113,0.075,0.238,0.113,0.375,0.113
		c0.013,0,0.113-0.02,0.301-0.057c0.699-0.287,1.415-0.625,2.146-1.013c0.73-0.388,1.34-0.737,1.828-1.05
		c0.487-0.312,0.975-0.641,1.463-0.984c0.486-0.344,0.806-0.575,0.955-0.694c0.15-0.119,0.281-0.228,0.395-0.328
		c0.175-0.15,0.262-0.337,0.262-0.562c0-0.237-0.087-0.425-0.262-0.562C14.85,9.312,14.719,9.203,14.568,9.084z"/>
</g>
</svg>
