<?xml version="1.0" encoding="utf-8"?>
<!-- Generator: Adobe Illustrator 15.0.2, SVG Export Plug-In . SVG Version: 6.00 Build 0)  -->
<!DOCTYPE svg PUBLIC "-//W3C//DTD SVG 1.1//EN" "http://www.w3.org/Graphics/SVG/1.1/DTD/svg11.dtd">
<svg version="1.1" xmlns="http://www.w3.org/2000/svg" xmlns:xlink="http://www.w3.org/1999/xlink" x="0px" y="0px" width="20.25px"
	 height="20.25px" viewBox="0 0 20.25 20.25" enable-background="new 0 0 20.25 20.25" xml:space="preserve">
<g id="video_outline_layer_1">
</g>
<g id="video_outline_layer_2">
	<g>
		<g>
			<path d="M10.125,20.25c-1.37,0-2.698-0.265-3.946-0.786c-1.235-0.536-2.319-1.266-3.223-2.17c-0.906-0.906-1.637-1.99-2.17-3.222
				C0.265,12.821,0,11.493,0,10.123c0-1.342,0.265-2.669,0.784-3.944c0.521-1.211,1.252-2.288,2.172-3.207
				c0.946-0.946,2.03-1.677,3.224-2.17c2.438-1.058,5.346-1.08,7.893,0.001c1.164,0.48,2.243,1.21,3.203,2.169
				c0.958,0.96,1.688,2.038,2.17,3.207c0.533,1.259,0.805,2.587,0.805,3.945c0,1.385-0.271,2.713-0.807,3.948
				c-0.493,1.191-1.223,2.276-2.168,3.223c-0.919,0.918-1.996,1.648-3.201,2.169C12.795,19.986,11.468,20.25,10.125,20.25z
				 M10.125,0.49c-1.318,0-2.581,0.258-3.753,0.766C5.235,1.726,4.205,2.42,3.305,3.321C2.43,4.196,1.735,5.222,1.239,6.37
				c-0.493,1.21-0.745,2.475-0.745,3.753c0,1.304,0.251,2.568,0.746,3.756c0.508,1.171,1.203,2.204,2.064,3.065
				c0.859,0.861,1.892,1.555,3.067,2.064c2.347,0.98,5.057,1.002,7.511-0.002c1.144-0.494,2.169-1.188,3.043-2.062
				c0.899-0.9,1.594-1.932,2.062-3.064c0.51-1.178,0.768-2.44,0.768-3.757c0-1.291-0.258-2.554-0.767-3.754
				c-0.456-1.11-1.151-2.134-2.063-3.048c-0.913-0.912-1.938-1.606-3.044-2.063C12.681,0.748,11.418,0.49,10.125,0.49z"/>
		</g>
		<g>
			<path d="M7.706,15.249c-0.197,0-0.379-0.055-0.541-0.162c-0.282-0.166-0.457-0.439-0.491-0.785c0,0.001,0,0.002,0,0.002
				c-0.005,0-0.022-0.092-0.061-0.656c-0.027-0.391-0.055-0.938-0.082-1.641c-0.026-0.702-0.04-1.384-0.04-2.045
				c0-0.661,0.014-1.347,0.04-2.056c0.027-0.709,0.056-1.256,0.082-1.641c0.041-0.604,0.06-0.657,0.071-0.696
				c0.023-0.292,0.19-0.564,0.483-0.754c0.369-0.186,0.693-0.173,0.958-0.06c0.753,0.31,1.537,0.679,2.326,1.098
				c0.792,0.419,1.459,0.803,1.983,1.139c0.536,0.345,1.068,0.702,1.582,1.065c0.529,0.373,0.874,0.625,1.038,0.753
				c0.166,0.132,0.312,0.253,0.435,0.363c0.234,0.184,0.365,0.46,0.365,0.79c0,0.317-0.124,0.583-0.368,0.792
				c-0.12,0.107-0.266,0.228-0.431,0.359c-0.164,0.129-0.51,0.381-1.04,0.755c-0.516,0.363-1.047,0.722-1.581,1.063
				c-0.527,0.338-1.194,0.722-1.983,1.14c-0.789,0.419-1.573,0.788-2.33,1.1C7.846,15.229,7.721,15.249,7.706,15.249z M7.706,5.167
				c-0.096,0-0.192,0.025-0.294,0.075C7.271,5.336,7.185,5.477,7.165,5.671c-0.01,0.053-0.026,0.144-0.06,0.627
				C7.08,6.68,7.053,7.222,7.025,7.925c-0.026,0.702-0.04,1.381-0.04,2.037c0,0.656,0.014,1.331,0.04,2.027
				c0.027,0.696,0.055,1.237,0.08,1.626c0.034,0.492,0.05,0.585,0.053,0.598c0.026,0.23,0.109,0.363,0.27,0.456
				c0.088,0.059,0.171,0.085,0.265,0.087C7.73,14.749,7.827,14.73,7.98,14.7c0.695-0.291,1.465-0.654,2.24-1.065
				c0.777-0.411,1.433-0.788,1.948-1.118c0.527-0.339,1.054-0.693,1.562-1.053c0.521-0.367,0.858-0.612,1.019-0.739
				c0.157-0.124,0.295-0.238,0.412-0.343c0.138-0.118,0.199-0.25,0.199-0.42c0-0.179-0.06-0.31-0.188-0.411
				c-0.129-0.114-0.267-0.229-0.424-0.354c-0.159-0.124-0.498-0.371-1.018-0.737c-0.507-0.358-1.034-0.713-1.563-1.053
				c-0.513-0.329-1.168-0.706-1.948-1.119C9.445,5.877,8.676,5.515,7.936,5.21C7.868,5.181,7.793,5.167,7.706,5.167z"/>
		</g>
	</g>
</g>
</svg>
