<?xml version="1.0" encoding="utf-8"?>
<!-- Generator: Adobe Illustrator 16.2.1, SVG Export Plug-In . SVG Version: 6.00 Build 0)  -->
<!DOCTYPE svg PUBLIC "-//W3C//DTD SVG 1.1//EN" "http://www.w3.org/Graphics/SVG/1.1/DTD/svg11.dtd">
<svg version="1.1" id="Layer_1" xmlns="http://www.w3.org/2000/svg" xmlns:xlink="http://www.w3.org/1999/xlink" x="0px" y="0px"
	 width="275.148px" height="107.396px" viewBox="0 0 275.148 107.396" enable-background="new 0 0 275.148 107.396"
	 xml:space="preserve">
<g>
	<path fill="#5E6A71" d="M136.83,11.184c2.176,0,3.977-1.801,3.977-3.978c0-2.178-1.801-3.979-3.977-3.979
		c-2.178,0-3.979,1.801-3.979,3.979C132.851,9.383,134.653,11.184,136.83,11.184z"/>
	<path fill="#5E6A71" d="M95.811,50.809c2.58-1,4.096-4.121,4.096-7.072c0-3.377-1.353-6.632-7.13-9.783
		c-5.854-3.152-7.356-5.307-7.356-8.458c0-2.478,1.651-4.643,4.654-4.642c3.451-0.001,5.479,4.358,6.38,7.586
		c1.126,0,2.025-0.297,1.876-1.349l-0.677-5.477c-0.074-0.901-0.225-1.125-1.426-1.5c-2.102-0.677-3.901-0.977-6.229-0.977
		c-5.029,0-10.358,2.478-10.358,8.181c0,4.054,1.651,6.38,6.98,9.607c3.978,2.401,7.279,4.558,7.279,8.461
		c0,3.9-1.938,5.421-4.838,5.421L95.811,50.809L95.811,50.809z"/>
	<path fill="#5E6A71" d="M275.149,50.809c-1.097,0-2.148-0.715-2.148-2.099V32.648c0-4.803-0.959-7.805-2.16-9.681
		c-1.5-2.327-3.782-3.828-8.436-3.828c-3.602,0-7.634,1.575-10.033,5.553c-0.228-1.274-0.628-3.978-0.702-5.179
		c-2.552,0.451-5.686,1.201-8.088,1.728c-0.374,0.074-0.581,0.226-0.581,0.524v0.825c1,0.451,2.375,1.126,3.201,2.702
		c0.823,1.577,0.799,4.203,0.799,6.604v11.859c0,3.152-0.381,5.157-0.756,5.608c-0.829,1.036-1.806,1.442-2.763,1.442h12.312
		c-0.728,0-1.377-0.76-2.009-1.519C252.884,48.24,253,46.984,253,44.132V32.124c0-0.676-0.19-4.354,1.685-6.98
		c1.803-2.477,3.434-3.227,5.686-3.227c2.627-0.001,4.229,1.274,5.132,3.603c1.125,2.853,1.325,10.508,1.325,12.685
		c0,3.078-0.312,8.387-0.836,10.487c-0.298,1.146-1.08,2.118-1.875,2.118L275.149,50.809L275.149,50.809z"/>
	<path fill="#5E6A71" d="M62.312,6.156c0.601-0.226,0.956-0.302,1.632-0.451C64.244,5.63,64,5.554,64,5.329v-0.9
		c0-0.225,0.169-0.3-0.131-0.225c-2.026,0.3-4.521,0.375-5.948,0.375C56.722,4.579,55,4.504,51,4.204v1.05
		c3,0.149,4.567,1.051,4.567,3.753c0,0.825-0.229,1.801-0.456,3.002c-2.326,11.557-4.544,18.979-7.319,29.111
		c-3.379-9.758-7.245-19.312-13.477-37.312h-1.274c-4.878,15-7.431,21.55-13.136,37.611c-1.426-6.154-4.276-15.869-7.204-30.579
		c-0.226-1.051-0.252-1.818-0.252-2.569C12.524,5.948,14,5.554,17,5.254v-1.05c-4,0.3-6.652,0.375-8.453,0.375
		c-1.952,0-5.737-0.15-7.915-0.375C0.257,4.204,0,4.204,0,4.429v0.9C0,5.554,0.159,5.63,0.458,5.704
		C1.209,5.854,2.114,6.23,2.94,6.755c1.576,0.976,2.59,1.707,3.343,4.785c2.575,10.673,5.771,23.27,10.142,39.27h2.555
		c3.534-10,7.782-21.52,13.086-35.763c5.079,13.347,9.312,24.763,13.316,35.763h2.354c2.39-9,8.178-31.431,11.273-41.297
		C59.535,7.861,61.036,6.68,62.312,6.156z"/>
	<path fill="#5E6A71" d="M80.543,42.687c-1.201,0-2.027,0.186-1.877,1.312l0.847,5.812h0.003L80,50.139v-0.006
		c-3-0.038-4-0.612-4-6.301V31.448c0-5.854-0.205-7.656-2.232-9.981c-0.977-1.051-2.729-2.327-6.783-2.327
		c-3.376,0-6.467,1.5-8.795,3.302c-1.201,0.9-2.971,3.077-2.971,4.652c0,2.027,1.742,3.003,3.318,3.003
		c1.426,0,2.559-0.826,2.783-1.276c0-0.3-0.296-0.525-0.296-1.351c0-2.627,1.724-6.229,5.701-6.229c3.076,0,4.273,3.603,4.273,7.654
		v5.555c-5,1.275-9,2.477-10.275,2.853c-5.18,1.501-6.902,4.783-6.902,7.411c0,2.146,0.598,5.096,2.473,6.096h12.038
		c1.18-1,2.054-1.939,2.454-2.739c0.164,1.067,0.554,1.739,1.104,2.739h15.543C84.132,50.809,82.5,48.276,80.543,42.687z M71,41.505
		c0,3.152-2.17,8.331-6.148,8.331c-3.303,0-4.801-2.478-4.801-5.629c0-1.727,0.71-3.377,1.985-4.278
		C63.011,39.253,67,37.303,71,36.627V41.505z"/>
</g>
<g opacity="0.9">
	<path fill="#FFFFFF" d="M169.611,107.284l-0.421-4.619c-0.403,1.541-1.067,3.184-1.565,4.619h-1.023
		c-0.533-1.521-1.125-3.062-1.555-4.63l-0.351,4.63h-1.657l0.448-6.572h2.384l1.36,4.027l1.35-4.027h2.186l0.581,6.572H169.611z"/>
	<path fill="#FFFFFF" d="M184.798,107.312l-0.506-1.445H182.2l-0.591,1.445l-1.539-0.047l2.675-6.507l1.658-0.047l2.486,6.554
		L184.798,107.312z M183.317,102.618l-0.789,2.216h1.455L183.317,102.618z"/>
	<path fill="#FFFFFF" d="M199.302,107.397c-2.289,0-3.949-1.455-3.949-3.475c0-1.963,1.597-3.323,3.855-3.323
		c0.618,0,1.612,0.065,2.27,0.356l-0.449,1.229c-0.413-0.188-1.221-0.227-1.528-0.227c-1.267,0-2.093,0.816-2.093,2.057
		c0,1.578,1.031,2.16,1.771,2.16c0.357,0,0.536-0.01,0.901-0.123v-1.201h-1.275v-1.127h2.982v3.343
		C201.056,107.284,199.892,107.397,199.302,107.397z"/>
	<path fill="#FFFFFF" d="M215.483,107.312l-0.507-1.445h-2.092l-0.591,1.445l-1.537-0.047l2.672-6.507l1.661-0.047l2.485,6.554
		L215.483,107.312z M214.002,102.618l-0.788,2.216h1.454L214.002,102.618z"/>
	<path fill="#FFFFFF" d="M225.972,107.284v-0.666l3.001-4.658h-2.307v-1.248h4.736v0.656l-2.926,4.668h3.086v1.248H225.972z"/>
	<path fill="#FFFFFF" d="M240.662,107.284v-6.572h1.97v6.572H240.662z"/>
	<path fill="#FFFFFF" d="M256.827,107.284l-2.975-3.72v3.72h-1.548v-6.572h1.371l2.851,3.652v-3.652h1.549v6.572H256.827z"/>
	<path fill="#FFFFFF" d="M267.747,107.284v-6.572h3.997v1.248h-2.027v1.259h1.979v1.259h-1.979v1.56h2.421v1.248L267.747,107.284
		L267.747,107.284z"/>
</g>
<g>
	<path fill="#981E32" d="M174.228,96.073c-3.498,0-7.742-0.991-9.305-1.416c-2.01-0.565-2.085-0.777-2.308-2.051l-1.266-7.851
		c-0.373-2.121,0-2.404,1.712-2.404c2.232,9.123,6.476,11.668,11.612,11.668c4.912,0,8.338-3.04,8.338-8.414
		c0-4.737-4.914-9.334-9.381-12.445c-6.699-4.738-11.166-8.203-11.166-13.508c0-6.93,6.551-10.042,14.516-10.042
		c3.277,0,5.436,0.565,7.224,1.061c1.713,0.495,2.157,0.778,2.231,2.051l0.447,6.789c0.074,1.132-0.447,1.414-2.086,1.414
		c-0.743-4.454-2.53-9.263-8.262-9.263c-4.913,0-7.816,3.04-7.816,6.788c0,4.949,4.391,7.071,11.019,11.951
		c8.337,6.151,9.678,10.536,9.678,13.508C189.415,90.555,183.98,96.073,174.228,96.073z"/>
	<path fill="#981E32" d="M231.521,93.314c-2.383,0-3.521-0.354-3.521-5.939V75.706c0-5.517-0.199-7.213-2.209-9.406
		c-0.969-0.99-2.706-2.191-6.727-2.191c-3.351,0-6.415,1.414-8.724,3.111c-1.19,0.849-2.947,2.899-2.947,4.385
		c0,1.909,1.729,2.828,3.29,2.828c1.416,0,2.54-0.776,2.765-1.201c0-0.282-0.296-0.496-0.296-1.272c0-2.477,1.688-5.869,5.633-5.869
		c3.051,0,4.215,3.394,4.215,7.213v5.232c-5,1.201-8.904,2.334-10.168,2.688c-5.14,1.414-6.836,4.597-6.836,7.072
		c0,0.746,0.066,1.522,0.273,2.286c-0.191,0.002-0.441,0.12-0.839,0.33c-2.232,1.201-3.23,1.556-4.572,1.556
		c-2.755,0-2.858-2.546-2.858-7.709V67.809h3.993c3.274,0,4.168-0.295,4.614-0.719c0.224-0.213,0.297-0.787,0.297-1.707
		c0-0.211-0.223-0.574-0.521-0.574h-8.783c0.074-3,0.373-6.468,0.594-8.306c0.076-0.566-0.154-0.618-1.421-0.618
		c-1.487,1.697-3.772,4.121-4.772,5.182v3.742h-3.928c-0.299,0-0.072,0.289-0.072,0.5c0,0.213,0,1.273,0,1.558
		c0,0.283-0.151-0.058,0.221-0.058H192v21.625c0,3.607,0.455,7.64,6.112,7.64c3.351,0,7.711-3.112,8.528-4.175
		c0.031-0.042,0.025-0.073,0.051-0.112c1.087,2.348,3.509,4.287,8.188,4.287c3.796,0,7.066-2.83,7.96-4.527
		c0.447,2.758,2.529,4.527,5.21,4.527c1.86,0,3.273-0.779,3.943-1.203c0.373-0.213,0.322-0.426,0.322-0.851
		C232.315,93.526,231.969,93.314,231.521,93.314z M223,85.182c0,2.969-2.129,7.85-6.074,7.85c-3.275,0-4.75-2.333-4.75-5.305
		c0-1.627,0.686-3.182,1.95-4.03c0.968-0.638,4.874-2.476,8.874-3.111V85.182z"/>
	<path fill="#981E32" d="M249.11,66.866c-0.446,0.424-1.34,0.494-4.612,0.494h-4.395v17.396c0,5.163,0.297,7.709,3.052,7.709
		c1.343,0,2.53-0.354,4.766-1.556c0.669-0.354,0.894-0.495,1.189-0.143c0.297,0.354,0.371,0.637,0,1.131
		c-0.817,1.062-5.211,4.175-8.56,4.175c-5.659,0-6.18-4.031-6.18-7.64V67.29h-3.647c-0.371,0-0.67-0.142-0.67-0.424
		c0-0.283,0-1.345,0-1.558c0-0.211,0.225-0.424,0.521-0.424h3.796v-3.818c1.19-1.061,3.351-3.465,4.839-5.162
		c1.266,0,1.562,0.07,1.488,0.638c-0.224,1.838-0.521,4.879-0.596,8.344h8.784c0.297,0,0.521,0.213,0.521,0.424
		C249.407,66.229,249.335,66.654,249.11,66.866z"/>
	<path fill="#981E32" d="M271.74,78.676h-16.897c0,5.939,1.637,14.354,10.049,14.354c2.904,0,4.988-0.988,6.104-1.626
		c0.299-0.142,0.446-0.213,0.596-0.213s0.299,0.213,0.447,0.426c0.298,0.354,0.372,0.564,0.372,0.636
		c0,0.143-0.297,0.354-0.67,0.637c-2.829,2.334-7.369,3.185-9.381,3.185c-1.041,0-13.846,0.424-13.846-16.338
		c0-8.132,5.137-15.628,13.4-15.628c2.902,0,10.793,1.062,10.793,13.578L271.74,78.676z M261.915,66.159
		c-5.584,0-6.924,6.646-6.924,10.606l10.422-0.919c1.785-0.142,2.231-0.849,2.231-2.476
		C267.646,71.887,266.381,66.159,261.915,66.159z"/>
</g>
<g>
	<path fill="#5E6A71" d="M161.387,21.916c2.629,0,4.234,1.275,5.135,3.604c1.126,2.853,1.329,10.508,1.329,12.685
		c0,3.078-0.312,8.386-0.838,10.487c-0.295,1.147-1.077,2.119-1.873,2.119h4.187c1.51-0.543,3.197-0.898,5.005-1.069
		c-0.201-0.271-0.33-0.605-0.33-1.029V32.648c0-4.803-0.947-7.805-2.147-9.681c-1.502-2.327-3.775-3.828-8.431-3.828
		c-3.603,0-7.629,1.575-10.03,5.553c-0.226-1.274-0.625-3.978-0.7-5.179c-2.552,0.451-5.696,1.201-8.098,1.728
		c-0.375,0.074-0.594,0.226-0.594,0.524v0.825c1,0.451,2.374,1.126,3.2,2.702c0.825,1.577,0.8,4.203,0.8,6.604v11.859
		c0,3.013-0.343,5.048-0.695,5.617c-0.024,0.038-0.082,0.077-0.107,0.113c-0.596,0.731-1.232,1.106-1.896,1.32h11.52
		c-0.727,0-1.389-0.76-2.022-1.519c-0.9-1.052-0.796-2.308-0.796-5.158V32.124c0-0.676-0.179-4.354,1.698-6.98
		C157.499,22.667,159.137,21.916,161.387,21.916z"/>
	<path fill="#5E6A71" d="M141.083,48.936c-0.749-1.05-1.083-2.852-1.083-5.704V19.14c-2,0.374-6.488,0.9-8.815,1.575
		C130.81,20.791,131,20.94,131,21.316v0.75c1,0.601,1.8,1.125,2.625,2.702c0.827,1.576,0.375,4.729,0.375,7.13v11.859
		c0,2.626,0.063,4.428-0.387,5.104c-0.646,1.022-1.303,1.387-2.18,1.623c-0.312,0.08-0.493,0.134-0.703,0.174
		c-0.191,0.021-0.365,0.036-0.573,0.036c-0.245,0-0.612-0.022-0.834-0.053c-1.01-0.217-2.323-0.656-2.323-1.931V32.648
		c0-4.803-0.525-7.729-1.728-9.681c-1.801-2.927-4.622-3.828-8.224-3.828c-3.378,0-7.05,1.727-9.05,5.553V0
		c-4,1.427-8.229,1.651-9.429,1.727c-0.449,0-0.571,0.3-0.571,0.601v0.825c2,0.677,4,1.352,4,5.854v34.75
		c0,4.803-0.223,5.084-0.522,5.608c-0.498,0.783-1.877,1.442-2.908,1.442h12.439c-0.72,0-1.366-0.77-1.991-1.519
		C108.119,48.24,108,46.984,108,44.132V32.124c0-1.353,0.119-4.354,1.693-6.755c1.575-2.478,3.211-3.453,5.464-3.453
		c2.628,0,4.007,1.275,5.059,3.604c1.275,2.776,1.328,10.508,1.328,12.685c0,3.603,0.062,8.235-0.537,10.412
		c-0.344,1.184-1.068,2.193-1.784,2.193h24.325C142.706,50.485,141.832,49.949,141.083,48.936z"/>
	<path fill="#5E6A71" d="M236.857,20.968c-1.877-1.126-4.353-1.853-7.13-1.853c-2.4,0-4.503,0.537-6.381,1.513
		c-5.403,2.702-8.704,9.163-8.704,16.442c0,3.749,1.305,7.475,3.576,10.39l-0.002,0.014c-0.064,0.036-0.119,0.066-0.198,0.109
		c-2.252,1.275-3.521,1.651-4.873,1.65c-2.775,0-3.146-2.701-3.146-8.18V22.809h4.565c3.304,0,4.203,0.035,4.653-0.415
		c0.226-0.225,0.3-0.418,0.3-1.394c0-0.226-0.225-0.191-0.524-0.191h-8.855c0.075-4,0.375-7.546,0.601-9.498
		c0.075-0.6-0.404-0.775-1.682-0.775c-1.5,1.801-3.058,4.252-5.058,5.377v4.062c-2,0.688-6.652,0.907-8.583,1.116
		c-2.177-1.275-4.563-1.951-7.491-1.951c-7.354,0-11.963,5.779-11.963,11.858c0,6.154,4.728,9.457,6.679,10.432L177,49.611
		c0,0.004,0,0.008,0,0.011c0-0.001,0.053-0.01,0.182-0.01c3.277,0,5.335,0.565,7.123,1.061c0.166,0.048,0.209,0.093,0.353,0.138
		h15.608c-1.817-1-4.467-3-8.047-3c-3.902,0-4.202,0-7.13,0c-2.176,0-3.152-0.375-3.152-1.5c0-0.45,0.45-1.164,0.751-1.612
		l1.802-2.797c0.149,0.15,1.727,0.63,4.203,0.63c6.454,0,12.01-5.169,12.01-12.073c0-3.677-1.951-6.646-3.229-7.646H204V44.96
		c0,2.15,0.523,4.851,1.684,5.851h10.619c1.417-1,2.531-1.748,2.91-2.261l0.011,0.045l0.007-0.076c0.856,0.9,1.81,2.292,2.865,2.292
		h7.229c-6.269-0.784-8.379-8.868-8.379-16.358c0-4.954,1.052-13.135,7.955-13.135c5.329,0,9.008,5.931,9.008,16.963
		c0,10.228-4.193,12.174-6.528,12.53h5.43c4.514-3,7.479-7.681,7.479-15.628C244.287,30.302,241.887,24.045,236.857,20.968z
		 M188.842,40.379c-4.652,0-6.905-4.278-6.905-11.333c0-3.452,1.651-7.73,6.005-7.73c4.729,0,6.604,4.804,6.604,10.433
		C194.546,36.702,192.97,40.379,188.842,40.379z"/>
</g>
</svg>
