<?xml version="1.0" encoding="utf-8"?>
<!-- Generator: Adobe Illustrator 16.2.1, SVG Export Plug-In . SVG Version: 6.00 Build 0)  -->
<!DOCTYPE svg PUBLIC "-//W3C//DTD SVG 1.1//EN" "http://www.w3.org/Graphics/SVG/1.1/DTD/svg11.dtd">
<svg version="1.1" id="Layer_1" xmlns="http://www.w3.org/2000/svg" xmlns:xlink="http://www.w3.org/1999/xlink" x="0px" y="0px"
	 width="275.149px" height="50.809px" viewBox="0 0 275.149 50.809" enable-background="new 0 0 275.149 50.809"
	 xml:space="preserve">
<g>
	<path fill="#5E6A71" d="M136.83,11.184c2.176,0,3.977-1.801,3.977-3.978c0-2.177-1.801-3.978-3.977-3.978
		c-2.177,0-3.979,1.801-3.979,3.978S134.653,11.184,136.83,11.184z"/>
	<path fill="#5E6A71" d="M95.811,50.809c2.58-1,4.095-4.121,4.095-7.072c0-3.377-1.352-6.632-7.129-9.784
		c-5.855-3.152-7.357-5.306-7.357-8.458c0-2.477,1.652-4.642,4.654-4.641c3.452-0.001,5.479,4.358,6.38,7.586
		c1.126,0,2.026-0.297,1.876-1.349l-0.676-5.477c-0.075-0.901-0.225-1.125-1.426-1.5c-2.102-0.676-3.902-0.976-6.229-0.976
		c-5.029,0-10.358,2.477-10.358,8.181c0,4.053,1.651,6.379,6.98,9.607c3.978,2.401,7.28,4.558,7.28,8.461
		c0,3.9-1.938,5.421-4.838,5.421H95.811z"/>
	<path fill="#5E6A71" d="M275.149,50.809c-1.097,0-2.149-0.715-2.149-2.099V32.648c0-4.803-0.959-7.805-2.16-9.681
		c-1.5-2.327-3.782-3.828-8.435-3.828c-3.602,0-7.634,1.575-10.034,5.553c-0.227-1.275-0.628-3.978-0.702-5.179
		c-2.552,0.451-5.685,1.201-8.088,1.727c-0.374,0.075-0.581,0.226-0.581,0.525v0.825c1,0.451,2.375,1.126,3.201,2.702
		c0.824,1.577,0.799,4.203,0.799,6.605v11.859c0,3.152-0.381,5.157-0.756,5.608c-0.829,1.037-1.805,1.443-2.762,1.443h12.312
		c-0.727,0-1.377-0.76-2.009-1.519C252.884,48.24,253,46.984,253,44.132V32.124c0-0.676-0.19-4.353,1.685-6.98
		c1.803-2.477,3.433-3.227,5.685-3.227c2.627-0.001,4.23,1.275,5.132,3.603c1.125,2.852,1.325,10.508,1.325,12.684
		c0,3.078-0.311,8.387-0.836,10.488c-0.297,1.146-1.08,2.118-1.875,2.118H275.149z"/>
	<path fill="#5E6A71" d="M62.312,6.155c0.6-0.225,0.956-0.301,1.632-0.451C64.244,5.63,64,5.554,64,5.329v-0.9
		c0-0.225,0.169-0.3-0.131-0.225c-2.026,0.3-4.52,0.375-5.948,0.375C56.722,4.579,55,4.504,51,4.204v1.05
		c3,0.15,4.568,1.051,4.568,3.753c0,0.825-0.23,1.801-0.456,3.002c-2.327,11.557-4.544,18.979-7.32,29.111
		c-3.379-9.757-7.245-19.312-13.476-37.312h-1.275c-4.878,15-7.43,21.55-13.135,37.611c-1.426-6.154-4.277-15.869-7.205-30.579
		c-0.225-1.051-0.252-1.818-0.252-2.569C12.524,5.947,14,5.554,17,5.254v-1.05c-4,0.3-6.652,0.375-8.453,0.375
		c-1.952,0-5.737-0.15-7.915-0.375C0.257,4.204,0,4.204,0,4.429v0.9C0,5.554,0.159,5.63,0.458,5.704
		C1.209,5.854,2.114,6.23,2.94,6.755c1.576,0.976,2.59,1.707,3.342,4.785c2.576,10.673,5.772,23.27,10.142,39.27h2.555
		c3.534-10,7.782-21.52,13.086-35.763c5.079,13.347,9.312,24.763,13.316,35.763h2.355c2.389-9,8.177-31.431,11.273-41.297
		C59.535,7.861,61.036,6.68,62.312,6.155z"/>
	<path fill="#5E6A71" d="M80.543,42.687c-1.201,0-2.027,0.185-1.877,1.311l0.847,5.812h0.003L80,50.139v-0.006
		c-3-0.038-4-0.612-4-6.301V31.448c0-5.854-0.205-7.656-2.232-9.981c-0.977-1.051-2.729-2.327-6.783-2.327
		c-3.376,0-6.467,1.5-8.795,3.302c-1.201,0.9-2.971,3.077-2.971,4.652c0,2.027,1.742,3.003,3.318,3.003
		c1.426,0,2.559-0.826,2.784-1.276c0-0.3-0.296-0.526-0.296-1.351c0-2.627,1.723-6.229,5.701-6.229c3.076,0,4.273,3.603,4.273,7.655
		v5.554c-5,1.276-9,2.477-10.275,2.853c-5.18,1.501-6.902,4.783-6.902,7.411c0,2.146,0.597,5.096,2.472,6.096h12.038
		c1.18-1,2.054-1.94,2.454-2.739c0.164,1.067,0.554,1.739,1.105,2.739h15.543C84.132,50.809,82.5,48.276,80.543,42.687z M71,41.505
		c0,3.152-2.17,8.331-6.148,8.331c-3.303,0-4.801-2.477-4.801-5.629c0-1.726,0.71-3.377,1.985-4.278
		C63.011,39.253,67,37.303,71,36.627V41.505z"/>
</g>
<g>
	<path fill="#5E6A71" d="M161.387,21.916c2.629,0,4.234,1.276,5.135,3.604c1.126,2.852,1.329,10.508,1.329,12.684
		c0,3.078-0.312,8.386-0.838,10.488c-0.295,1.147-1.077,2.119-1.873,2.119h4.186c1.51-0.543,3.198-0.899,5.005-1.07
		c-0.201-0.271-0.33-0.605-0.33-1.029V32.648c0-4.803-0.947-7.805-2.147-9.681c-1.502-2.327-3.776-3.828-8.431-3.828
		c-3.602,0-7.629,1.575-10.03,5.553c-0.226-1.275-0.625-3.978-0.7-5.179c-2.552,0.451-5.697,1.201-8.098,1.727
		c-0.375,0.075-0.594,0.226-0.594,0.525v0.825c1,0.451,2.374,1.126,3.2,2.702c0.826,1.577,0.8,4.203,0.8,6.605v11.859
		c0,3.013-0.343,5.048-0.695,5.617c-0.025,0.038-0.082,0.077-0.108,0.114c-0.595,0.731-1.232,1.106-1.896,1.32h11.52
		c-0.727,0-1.389-0.76-2.023-1.519c-0.9-1.051-0.796-2.307-0.796-5.158V32.124c0-0.676-0.179-4.353,1.698-6.98
		C157.499,22.667,159.137,21.916,161.387,21.916z"/>
	<path fill="#5E6A71" d="M141.083,48.936c-0.749-1.05-1.083-2.852-1.083-5.704V19.14c-2,0.374-6.488,0.9-8.815,1.575
		C130.81,20.791,131,20.94,131,21.316v0.75c1,0.6,1.8,1.125,2.625,2.702c0.827,1.576,0.375,4.728,0.375,7.13v11.859
		c0,2.626,0.064,4.428-0.386,5.104c-0.646,1.022-1.303,1.386-2.18,1.623c-0.312,0.08-0.493,0.133-0.703,0.173
		c-0.192,0.022-0.366,0.037-0.574,0.037c-0.245,0-0.612-0.023-0.834-0.053C128.314,50.424,127,49.985,127,48.71V32.648
		c0-4.803-0.525-7.729-1.727-9.681c-1.801-2.927-4.622-3.828-8.224-3.828c-3.378,0-7.05,1.726-9.05,5.553V0
		c-4,1.427-8.228,1.652-9.428,1.727c-0.45,0-0.572,0.3-0.572,0.6v0.826c2,0.676,4,1.351,4,5.854v34.75
		c0,4.803-0.222,5.084-0.522,5.608c-0.498,0.784-1.877,1.443-2.908,1.443h12.439c-0.72,0-1.366-0.77-1.991-1.519
		C108.119,48.24,108,46.984,108,44.132V32.124c0-1.352,0.119-4.353,1.694-6.755c1.575-2.477,3.211-3.453,5.463-3.453
		c2.628,0,4.007,1.276,5.059,3.604c1.275,2.776,1.328,10.508,1.328,12.684c0,3.603,0.063,8.236-0.537,10.412
		c-0.344,1.184-1.068,2.194-1.784,2.194h24.325C142.706,50.485,141.832,49.949,141.083,48.936z"/>
	<path fill="#5E6A71" d="M236.857,20.968c-1.877-1.126-4.353-1.853-7.13-1.853c-2.401,0-4.503,0.538-6.381,1.513
		c-5.403,2.702-8.704,9.163-8.704,16.443c0,3.749,1.305,7.474,3.576,10.389l-0.002,0.014c-0.064,0.036-0.119,0.066-0.198,0.109
		c-2.252,1.276-3.521,1.652-4.873,1.651c-2.776,0-3.146-2.702-3.146-8.18V22.809h4.566c3.303,0,4.203,0.035,4.653-0.415
		c0.226-0.225,0.3-0.418,0.3-1.394c0-0.225-0.225-0.191-0.525-0.191h-8.855c0.075-4,0.375-7.546,0.6-9.498
		c0.076-0.6-0.404-0.776-1.681-0.776c-1.5,1.801-3.058,4.252-5.058,5.377v4.063c-2,0.688-6.652,0.907-8.583,1.116
		c-2.177-1.275-4.563-1.951-7.491-1.951c-7.354,0-11.963,5.779-11.963,11.858c0,6.155,4.728,9.457,6.679,10.432L177,49.611
		c0,0.003,0,0.007,0,0.01c0-0.001,0.053-0.009,0.182-0.009c3.277,0,5.335,0.565,7.123,1.06c0.166,0.048,0.209,0.093,0.352,0.138
		h15.609c-1.818-1-4.467-3-8.047-3c-3.902,0-4.202,0-7.13,0c-2.176,0-3.152-0.375-3.152-1.5c0-0.45,0.45-1.164,0.751-1.613
		l1.801-2.796c0.15,0.15,1.727,0.629,4.204,0.629c6.454,0,12.009-5.168,12.009-12.073c0-3.677-1.951-6.646-3.229-7.646H204v22.149
		c0,2.151,0.524,4.851,1.684,5.851h10.619c1.417-1,2.531-1.748,2.91-2.261l0.011,0.045l0.007-0.076
		c0.856,0.9,1.809,2.292,2.865,2.292h7.229c-6.268-0.784-8.379-8.868-8.379-16.359c0-4.954,1.052-13.134,7.956-13.134
		c5.329,0,9.007,5.93,9.007,16.962c0,10.228-4.193,12.174-6.528,12.531h5.43c4.513-3,7.478-7.681,7.478-15.628
		C244.287,30.302,241.887,24.045,236.857,20.968z M188.842,40.379c-4.652,0-6.905-4.278-6.905-11.333c0-3.452,1.651-7.73,6.005-7.73
		c4.729,0,6.604,4.803,6.604,10.432C194.546,36.702,192.97,40.379,188.842,40.379z"/>
</g>
</svg>
