<?xml version="1.0" encoding="utf-8"?>
<!-- Generator: Adobe Illustrator 16.2.1, SVG Export Plug-In . SVG Version: 6.00 Build 0)  -->
<!DOCTYPE svg PUBLIC "-//W3C//DTD SVG 1.1//EN" "http://www.w3.org/Graphics/SVG/1.1/DTD/svg11.dtd">
<svg version="1.1" id="Layer_1" xmlns="http://www.w3.org/2000/svg" xmlns:xlink="http://www.w3.org/1999/xlink" x="0px" y="0px"
	 width="111.49px" height="57.786px" viewBox="161.218 49.611 111.49 57.786" enable-background="new 161.218 49.611 111.49 57.786"
	 xml:space="preserve">
<g opacity="0.9">
	<path fill="#FFFFFF" d="M169.611,107.284l-0.421-4.619c-0.403,1.541-1.067,3.184-1.565,4.619h-1.023
		c-0.533-1.521-1.125-3.062-1.555-4.63l-0.351,4.63h-1.657l0.448-6.572h2.384l1.36,4.027l1.35-4.027h2.186l0.581,6.572H169.611z"/>
	<path fill="#FFFFFF" d="M184.798,107.312l-0.506-1.445H182.2l-0.591,1.445l-1.539-0.047l2.675-6.507l1.658-0.047l2.486,6.554
		L184.798,107.312z M183.317,102.618l-0.789,2.216h1.455L183.317,102.618z"/>
	<path fill="#FFFFFF" d="M199.302,107.397c-2.289,0-3.949-1.455-3.949-3.475c0-1.963,1.597-3.323,3.855-3.323
		c0.618,0,1.612,0.065,2.27,0.356l-0.449,1.229c-0.413-0.188-1.221-0.227-1.528-0.227c-1.267,0-2.093,0.816-2.093,2.057
		c0,1.578,1.031,2.16,1.771,2.16c0.357,0,0.536-0.01,0.901-0.123v-1.201h-1.275v-1.127h2.982v3.343
		C201.056,107.284,199.892,107.397,199.302,107.397z"/>
	<path fill="#FFFFFF" d="M215.483,107.312l-0.507-1.445h-2.092l-0.591,1.445l-1.537-0.047l2.672-6.507l1.661-0.047l2.485,6.554
		L215.483,107.312z M214.002,102.618l-0.788,2.216h1.454L214.002,102.618z"/>
	<path fill="#FFFFFF" d="M225.972,107.284v-0.666l3.001-4.658h-2.307v-1.248h4.736v0.656l-2.926,4.668h3.086v1.248H225.972z"/>
	<path fill="#FFFFFF" d="M240.662,107.284v-6.572h1.97v6.572H240.662z"/>
	<path fill="#FFFFFF" d="M256.827,107.284l-2.975-3.72v3.72h-1.548v-6.572h1.371l2.851,3.652v-3.652h1.549v6.572H256.827z"/>
	<path fill="#FFFFFF" d="M267.747,107.284v-6.572h3.997v1.248h-2.027v1.259h1.979v1.259h-1.979v1.56h2.421v1.248L267.747,107.284
		L267.747,107.284z"/>
</g>
<g>
	<path fill="#981E32" d="M174.228,96.073c-3.498,0-7.742-0.991-9.305-1.416c-2.01-0.565-2.085-0.777-2.308-2.051l-1.266-7.851
		c-0.373-2.121,0-2.404,1.712-2.404c2.232,9.123,6.476,11.668,11.612,11.668c4.912,0,8.338-3.04,8.338-8.414
		c0-4.737-4.914-9.334-9.381-12.445c-6.699-4.738-11.166-8.203-11.166-13.508c0-6.93,6.551-10.042,14.516-10.042
		c3.277,0,5.436,0.565,7.224,1.061c1.713,0.495,2.157,0.778,2.231,2.051l0.447,6.789c0.074,1.132-0.447,1.414-2.086,1.414
		c-0.743-4.454-2.53-9.263-8.262-9.263c-4.913,0-7.816,3.04-7.816,6.788c0,4.949,4.391,7.071,11.019,11.951
		c8.337,6.151,9.678,10.536,9.678,13.508C189.415,90.555,183.98,96.073,174.228,96.073z"/>
	<path fill="#981E32" d="M231.521,93.314c-2.383,0-3.521-0.354-3.521-5.939V75.706c0-5.517-0.199-7.213-2.209-9.406
		c-0.969-0.99-2.706-2.191-6.727-2.191c-3.351,0-6.415,1.414-8.724,3.111c-1.19,0.849-2.947,2.899-2.947,4.385
		c0,1.909,1.729,2.828,3.29,2.828c1.416,0,2.54-0.776,2.765-1.201c0-0.282-0.296-0.496-0.296-1.272c0-2.477,1.688-5.869,5.633-5.869
		c3.051,0,4.215,3.394,4.215,7.213v5.232c-5,1.201-8.904,2.334-10.168,2.688c-5.14,1.414-6.836,4.597-6.836,7.072
		c0,0.746,0.066,1.522,0.273,2.286c-0.191,0.002-0.441,0.12-0.839,0.33c-2.232,1.201-3.23,1.556-4.572,1.556
		c-2.755,0-2.858-2.546-2.858-7.709V67.809h3.993c3.274,0,4.168-0.295,4.614-0.719c0.224-0.213,0.297-0.787,0.297-1.707
		c0-0.211-0.223-0.574-0.521-0.574h-8.783c0.074-3,0.373-6.468,0.594-8.306c0.076-0.566-0.154-0.618-1.421-0.618
		c-1.487,1.697-3.772,4.121-4.772,5.182v3.742h-3.928c-0.299,0-0.072,0.289-0.072,0.5c0,0.213,0,1.273,0,1.558
		c0,0.283-0.151-0.058,0.221-0.058H192v21.625c0,3.607,0.455,7.64,6.112,7.64c3.351,0,7.711-3.112,8.528-4.175
		c0.031-0.042,0.025-0.073,0.051-0.112c1.087,2.348,3.509,4.287,8.188,4.287c3.796,0,7.066-2.83,7.96-4.527
		c0.447,2.758,2.529,4.527,5.21,4.527c1.86,0,3.273-0.779,3.943-1.203c0.373-0.213,0.322-0.426,0.322-0.851
		C232.315,93.526,231.969,93.314,231.521,93.314z M223,85.182c0,2.969-2.129,7.85-6.074,7.85c-3.275,0-4.75-2.333-4.75-5.305
		c0-1.627,0.686-3.182,1.95-4.03c0.968-0.638,4.874-2.476,8.874-3.111V85.182z"/>
	<path fill="#981E32" d="M249.11,66.866c-0.446,0.424-1.34,0.494-4.612,0.494h-4.395v17.396c0,5.163,0.297,7.709,3.052,7.709
		c1.343,0,2.53-0.354,4.766-1.556c0.669-0.354,0.894-0.495,1.189-0.143c0.297,0.354,0.371,0.637,0,1.131
		c-0.817,1.062-5.211,4.175-8.56,4.175c-5.659,0-6.18-4.031-6.18-7.64V67.29h-3.647c-0.371,0-0.67-0.142-0.67-0.424
		c0-0.283,0-1.345,0-1.558c0-0.211,0.225-0.424,0.521-0.424h3.796v-3.818c1.19-1.061,3.351-3.465,4.839-5.162
		c1.266,0,1.562,0.07,1.488,0.638c-0.224,1.838-0.521,4.879-0.596,8.344h8.784c0.297,0,0.521,0.213,0.521,0.424
		C249.407,66.229,249.335,66.654,249.11,66.866z"/>
	<path fill="#981E32" d="M271.74,78.676h-16.897c0,5.939,1.637,14.354,10.049,14.354c2.904,0,4.988-0.988,6.104-1.626
		c0.299-0.142,0.446-0.213,0.596-0.213s0.299,0.213,0.447,0.426c0.298,0.354,0.372,0.564,0.372,0.636
		c0,0.143-0.297,0.354-0.67,0.637c-2.829,2.334-7.369,3.185-9.381,3.185c-1.041,0-13.846,0.424-13.846-16.338
		c0-8.132,5.137-15.628,13.4-15.628c2.902,0,10.793,1.062,10.793,13.578L271.74,78.676z M261.915,66.159
		c-5.584,0-6.924,6.646-6.924,10.606l10.422-0.919c1.785-0.142,2.231-0.849,2.231-2.476
		C267.646,71.887,266.381,66.159,261.915,66.159z"/>
</g>
</svg>
